<?xml version="1.0" encoding="UTF-8"?>
<svg xmlns="http://www.w3.org/2000/svg" xmlns:xlink="http://www.w3.org/1999/xlink" width="80px" height="80px" viewBox="0 0 80 80" version="1.1">
<g id="surface1">
<path style="fill-rule:evenodd;fill:rgb(100%,100%,100%);fill-opacity:1;stroke-width:1.5;stroke-linecap:round;stroke-linejoin:round;stroke:rgb(0%,0%,0%);stroke-opacity:1;stroke-miterlimit:4;" d="M 9.000244 12.999268 C 9.000244 14.104492 8.10376 15.000977 7.000732 15.000977 C 5.895508 15.000977 4.999023 14.104492 4.999023 12.999268 C 4.999023 11.89624 5.895508 10.999756 7.000732 10.999756 C 8.10376 10.999756 9.000244 11.89624 9.000244 12.999268 Z M 9.000244 12.999268 " transform="matrix(1.777778,0,0,1.777778,-1.777778,-1.777778)"/>
<path style="fill-rule:evenodd;fill:rgb(100%,100%,100%);fill-opacity:1;stroke-width:1.5;stroke-linecap:round;stroke-linejoin:round;stroke:rgb(0%,0%,0%);stroke-opacity:1;stroke-miterlimit:4;" d="M 8.999512 12.999268 C 8.999512 14.104492 8.105225 15.000977 7 15.000977 C 5.894775 15.000977 5.000488 14.104492 5.000488 12.999268 C 5.000488 11.89624 5.894775 10.999756 7 10.999756 C 8.105225 10.999756 8.999512 11.89624 8.999512 12.999268 Z M 8.999512 12.999268 " transform="matrix(1.777778,0,0,1.777778,27.555556,-9.777778)"/>
<path style="fill-rule:evenodd;fill:rgb(100%,100%,100%);fill-opacity:1;stroke-width:1.5;stroke-linecap:round;stroke-linejoin:round;stroke:rgb(0%,0%,0%);stroke-opacity:1;stroke-miterlimit:4;" d="M 9.000977 12.999268 C 9.000977 14.104492 8.104492 15.000977 6.999268 15.000977 C 5.89624 15.000977 4.999756 14.104492 4.999756 12.999268 C 4.999756 11.89624 5.89624 10.999756 6.999268 10.999756 C 8.104492 10.999756 9.000977 11.89624 9.000977 12.999268 Z M 9.000977 12.999268 " transform="matrix(1.777778,0,0,1.777778,56.888889,-1.777778)"/>
<path style="fill-rule:evenodd;fill:rgb(100%,100%,100%);fill-opacity:1;stroke-width:1.5;stroke-linecap:round;stroke-linejoin:round;stroke:rgb(0%,0%,0%);stroke-opacity:1;stroke-miterlimit:4;" d="M 9.000488 12.999023 C 9.000488 14.104248 8.104004 15.000732 7.000977 15.000732 C 5.895752 15.000732 4.999268 14.104248 4.999268 12.999023 C 4.999268 11.895996 5.895752 10.999512 7.000977 10.999512 C 8.104004 10.999512 9.000488 11.895996 9.000488 12.999023 Z M 9.000488 12.999023 " transform="matrix(1.777778,0,0,1.777778,12.444444,-8)"/>
<path style="fill-rule:evenodd;fill:rgb(100%,100%,100%);fill-opacity:1;stroke-width:1.5;stroke-linecap:round;stroke-linejoin:round;stroke:rgb(0%,0%,0%);stroke-opacity:1;stroke-miterlimit:4;" d="M 9.000732 13 C 9.000732 14.105225 8.104248 14.999512 6.999023 14.999512 C 5.895996 14.999512 4.999512 14.105225 4.999512 13 C 4.999512 11.894775 5.895996 11.000488 6.999023 11.000488 C 8.104248 11.000488 9.000732 11.894775 9.000732 13 Z M 9.000732 13 " transform="matrix(1.777778,0,0,1.777778,42.666667,-7.111111)"/>
<path style="fill-rule:evenodd;fill:rgb(100%,100%,100%);fill-opacity:1;stroke-width:1.5;stroke-linecap:butt;stroke-linejoin:round;stroke:rgb(0%,0%,0%);stroke-opacity:1;stroke-miterlimit:4;" d="M 9 26.000244 C 17.499023 24.499512 29.999268 24.499512 36 26.000244 L 37.999512 14.000977 L 30.999023 25.000488 L 30.999023 10.999512 L 25.499268 24.499512 L 22.5 9.500977 L 19.500732 24.499512 L 14.000977 10.500732 L 14.000977 25.000488 L 7.000488 14.000977 Z M 9 26.000244 " transform="matrix(1.777778,0,0,1.777778,0,0)"/>
<path style="fill-rule:evenodd;fill:rgb(100%,100%,100%);fill-opacity:1;stroke-width:1.5;stroke-linecap:butt;stroke-linejoin:round;stroke:rgb(0%,0%,0%);stroke-opacity:1;stroke-miterlimit:4;" d="M 9 26.000244 C 9 27.999756 10.500732 27.999756 11.500488 29.999268 C 12.500244 31.5 12.500244 30.999023 11.999268 33.499512 C 10.500732 34.499268 10.500732 36 10.500732 36 C 9 37.500732 10.999512 38.500488 10.999512 38.500488 C 17.499023 39.500244 27.500977 39.500244 34.000488 38.500488 C 34.000488 38.500488 35.499023 37.500732 34.000488 36 C 34.000488 36 34.499268 34.499268 33.000732 33.499512 C 32.499756 30.999023 32.499756 31.5 33.499512 29.999268 C 34.499268 27.999756 36 27.999756 36 26.000244 C 27.500977 24.499512 17.499023 24.499512 9 26.000244 Z M 9 26.000244 " transform="matrix(1.777778,0,0,1.777778,0,0)"/>
<path style="fill:none;stroke-width:1.5;stroke-linecap:round;stroke-linejoin:round;stroke:rgb(0%,0%,0%);stroke-opacity:1;stroke-miterlimit:4;" d="M 11.500488 29.999268 C 15.000732 28.999512 29.999268 28.999512 33.499512 29.999268 " transform="matrix(1.777778,0,0,1.777778,0,0)"/>
<path style="fill:none;stroke-width:1.5;stroke-linecap:round;stroke-linejoin:round;stroke:rgb(0%,0%,0%);stroke-opacity:1;stroke-miterlimit:4;" d="M 11.999268 33.499512 C 18 32.499756 27 32.499756 33.000732 33.499512 " transform="matrix(1.777778,0,0,1.777778,0,0)"/>
</g>
</svg>
