<?xml version="1.0" encoding="UTF-8"?>
<svg xmlns="http://www.w3.org/2000/svg" xmlns:xlink="http://www.w3.org/1999/xlink" width="80px" height="80px" viewBox="0 0 80 80" version="1.1">
<g id="surface1">
<path style=" stroke:none;fill-rule:evenodd;fill:rgb(0%,0%,0%);fill-opacity:1;" d="M 15.554688 21.332031 C 15.554688 24.035156 13.367188 26.222656 10.667969 26.222656 C 7.964844 26.222656 5.777344 24.035156 5.777344 21.332031 C 5.777344 18.632812 7.964844 16.445312 10.667969 16.445312 C 13.367188 16.445312 15.554688 18.632812 15.554688 21.332031 Z M 15.554688 21.332031 "/>
<path style=" stroke:none;fill-rule:evenodd;fill:rgb(0%,0%,0%);fill-opacity:1;" d="M 29.777344 16 C 29.777344 18.699219 27.589844 20.890625 24.890625 20.890625 C 22.1875 20.890625 20 18.699219 20 16 C 20 13.300781 22.1875 11.109375 24.890625 11.109375 C 27.589844 11.109375 29.777344 13.300781 29.777344 16 Z M 29.777344 16 "/>
<path style=" stroke:none;fill-rule:evenodd;fill:rgb(0%,0%,0%);fill-opacity:1;" d="M 44.890625 14.222656 C 44.890625 16.921875 42.699219 19.109375 40 19.109375 C 37.300781 19.109375 35.109375 16.921875 35.109375 14.222656 C 35.109375 11.523438 37.300781 9.332031 40 9.332031 C 42.699219 9.332031 44.890625 11.523438 44.890625 14.222656 Z M 44.890625 14.222656 "/>
<path style=" stroke:none;fill-rule:evenodd;fill:rgb(0%,0%,0%);fill-opacity:1;" d="M 60 16 C 60 18.699219 57.8125 20.890625 55.109375 20.890625 C 52.410156 20.890625 50.222656 18.699219 50.222656 16 C 50.222656 13.300781 52.410156 11.109375 55.109375 11.109375 C 57.8125 11.109375 60 13.300781 60 16 Z M 60 16 "/>
<path style=" stroke:none;fill-rule:evenodd;fill:rgb(0%,0%,0%);fill-opacity:1;" d="M 74.222656 21.332031 C 74.222656 24.035156 72.035156 26.222656 69.332031 26.222656 C 66.632812 26.222656 64.445312 24.035156 64.445312 21.332031 C 64.445312 18.632812 66.632812 16.445312 69.332031 16.445312 C 72.035156 16.445312 74.222656 18.632812 74.222656 21.332031 Z M 74.222656 21.332031 "/>
<path style="fill-rule:evenodd;fill:rgb(0%,0%,0%);fill-opacity:1;stroke-width:1.5;stroke-linecap:butt;stroke-linejoin:round;stroke:rgb(0%,0%,0%);stroke-opacity:1;stroke-miterlimit:4;" d="M 9 26.000244 C 17.499023 24.499512 29.999268 24.499512 36 26.000244 L 38.500488 13.5 L 30.999023 25.000488 L 30.700195 10.900635 L 25.499268 24.499512 L 22.5 9.999756 L 19.500732 24.499512 L 14.299805 10.900635 L 14.000977 25.000488 L 6.499512 13.5 Z M 9 26.000244 " transform="matrix(1.777778,0,0,1.777778,0,0)"/>
<path style="fill-rule:evenodd;fill:rgb(0%,0%,0%);fill-opacity:1;stroke-width:1.5;stroke-linecap:butt;stroke-linejoin:round;stroke:rgb(0%,0%,0%);stroke-opacity:1;stroke-miterlimit:4;" d="M 9 26.000244 C 9 27.999756 10.500732 27.999756 11.500488 29.999268 C 12.500244 31.5 12.500244 30.999023 11.999268 33.499512 C 10.500732 34.499268 10.500732 36 10.500732 36 C 9 37.500732 10.999512 38.500488 10.999512 38.500488 C 17.499023 39.500244 27.500977 39.500244 34.000488 38.500488 C 34.000488 38.500488 35.499023 37.500732 34.000488 36 C 34.000488 36 34.499268 34.499268 33.000732 33.499512 C 32.499756 30.999023 32.499756 31.5 33.499512 29.999268 C 34.499268 27.999756 36 27.999756 36 26.000244 C 27.500977 24.499512 17.499023 24.499512 9 26.000244 Z M 9 26.000244 " transform="matrix(1.777778,0,0,1.777778,0,0)"/>
<path style="fill:none;stroke-width:1.5;stroke-linecap:butt;stroke-linejoin:round;stroke:rgb(0%,0%,0%);stroke-opacity:1;stroke-miterlimit:4;" d="M 10.999512 38.500488 C 18.448242 41.091064 26.551758 41.091064 34.000488 38.500488 " transform="matrix(1.777778,0,0,1.777778,0,0)"/>
<path style="fill:none;stroke-width:1.5;stroke-linecap:round;stroke-linejoin:round;stroke:rgb(100%,100%,100%);stroke-opacity:1;stroke-miterlimit:4;" d="M 10.999512 28.999512 C 18.448242 26.408936 26.551758 26.408936 34.000488 28.999512 " transform="matrix(1.777778,0,0,1.777778,0,0)"/>
<path style="fill:none;stroke-width:1.5;stroke-linecap:round;stroke-linejoin:round;stroke:rgb(100%,100%,100%);stroke-opacity:1;stroke-miterlimit:4;" d="M 12.500244 31.5 L 32.499756 31.5 " transform="matrix(1.777778,0,0,1.777778,0,0)"/>
<path style="fill:none;stroke-width:1.5;stroke-linecap:round;stroke-linejoin:round;stroke:rgb(100%,100%,100%);stroke-opacity:1;stroke-miterlimit:4;" d="M 11.500488 34.499268 C 18.643799 36.865723 26.356201 36.865723 33.499512 34.499268 " transform="matrix(1.777778,0,0,1.777778,0,0)"/>
<path style="fill:none;stroke-width:1.5;stroke-linecap:round;stroke-linejoin:round;stroke:rgb(100%,100%,100%);stroke-opacity:1;stroke-miterlimit:4;" d="M 10.500732 37.500732 C 18.250488 40.328613 26.749512 40.328613 34.499268 37.500732 " transform="matrix(1.777778,0,0,1.777778,0,0)"/>
</g>
</svg>
